<svg width="808" height="355" viewBox="0 0 808 355" fill="none" xmlns="http://www.w3.org/2000/svg">
<path d="M284 5L12 141L284 277" stroke="black" stroke-width="10" stroke-linecap="round"/>
<path d="M556 5L284 141L556 277" stroke="black" stroke-width="10" stroke-linecap="round"/>
<path d="M777.5 170.5C765.618 219.008 719.171 252 667 252C605.696 252 556 202.304 556 141C556 79.6964 605.696 30 667 30C719.171 30 765.618 62.492 777.5 111" stroke="black" stroke-width="8" stroke-linecap="round"/>
<path d="M803.5 5.00002L777.639 5C777.639 5 776.607 62.0291 777.208 111.792L748 141L777.639 170.639C777.767 220.297 777.639 277 777.639 277H803" stroke="black" stroke-width="8" stroke-linecap="round"/>
</svg>
